<svg viewBox="0 0 105.3 105.8">
  <path d="M7 7v91.8h91.3V7H52.7zm79.7 12.8h1v9h-1v-1c-.2.4-.5.7-.8.9a2 2 0 0 1-1 .3 2.4 2.4 0 0 1-2-1l-.5-1.1a4.9 4.9 0 0 1 0-2.7c0-.4.3-.8.5-1 .2-.4.5-.6.8-.8.3-.2.7-.3 1.2-.3l.9.3c.3.1.6.4.9.8zM84.9 23c-.2 0-.5 0-.7.2l-.6.5-.3.9a4 4 0 0 0 0 2l.3.7.6.6.7.2c.2 0 .6 0 .8-.2l.5-.5.4-.8.1-1v-.2l-.1-1-.4-.7-.5-.5-.8-.2zm-29 5h21.7v10.5h-22v17.8c.2 13.5.2 18 .5 18.7.3 1 1.4 2.4 2.3 2.8 1 .6 4.3.5 6.3-.1a81 81 0 0 1 2.8-1l.4-.1c.3 0 .4.8.4 5.5v5.5l-.7.3-2.3.7c-1.3.3-2.7.4-5.4.5-3.9 0-4 0-6.1-.5-2.3-.6-4.8-2-6.1-3.6a18 18 0 0 1-3.8-8.9c-.2-1-.3-8.8-.4-19.7v-18l-5 .1c-4.7.1-4.8.2-6.7.8l-2.6 1a52.8 52.8 0 0 0-6.6 4.1c-.2 0-.3-1.9-.3-5.7V33l.9-.8a15 15 0 0 1 4.3-2.5c1.2-.6 2.2-.9 4.5-1.3 2-.4 4-.4 23.9-.4z"/>
</svg>