<svg viewBox="0 0 24 24" style="height:20px;width:20px"><path d="M7.4 9.9C7.2 9.7 7 9.7 6.8 9.7H6.1V14.3H6.8C7 14.3 7.2 14.3 7.4 14.2 7.5 14 7.6 13.8 7.6 13.6V10.5C7.6 10.2 7.5 10 7.4 9.9M20 2H4A2 2 0 0 0 2 4V20C2 21.1 2.9 22 4 22H20A2 2 0 0 0 22 20V4C22 2.9 21.1 2 20 2M8.9 13.6C8.9 14.4 8.4 15.7 6.7 15.7H4.7V8.3H6.8C8.4 8.3 8.9 9.6 8.9 10.4V13.6M13.4 9.6H11V11.3H12.5V12.7H11V14.4H13.4V15.7H10.6C10.1 15.7 9.7 15.3 9.7 14.8V9.2C9.7 8.7 10.1 8.3 10.6 8.3H13.4V9.6M18 14.8C17.4 16.1 16.4 15.9 15.9 14.8L14.2 8.3H15.6L17 13.4 18.3 8.3H19.7L18 14.8V14.8Z"/></svg>