<svg viewBox="0 0 71 71"><path d="M8.6 8.6v53.9h53.9v-54zm12.6 10.8h12.4V22h-1.3c-.7 0-1.4.2-1.5.3-.3.2-.3 3-.3 13.4v13h-1.1l-1.6.2h-.6v1.7l-.1 1.5-.1.1H14.2V51l-.1-1.7c-.1-.2-.8-.3-1.6-.3h-1.4V39.4h6v4.8c0 3.4 0 4.8.2 5 .3.3 6.4.3 6.7 0 .4-.4.4-26.6 0-26.9l-1.5-.2-1.3-.1v-1.3zm20 0h16V21l.1 1.7H59l1.6.1v6h-6.2v-3c0-2.4 0-3.2-.3-3.4-.2-.1-1.7-.2-5.3-.2l-5 .1v1a52 52 0 0 0 0 5V28.6c0 .4.1.6.2.7l1.7.1h1.4l.1 1.7v1.6l3.3.1 3.2.1v1.7l.2 1.6h1.6l1.6.2v1.3l.3 1.5c.2.2.8.3 1.7.3h1.5v9.3h-1L58 49h-.7v1.7l-.1 1.5-.1.1h-7.8c-6.2 0-8 0-8-.2l-.2-.8v-.4V49h-1.7l-1.6-.2V43v-.1h5.9v3.2c0 2 .1 2.9.2 3.2h.1c.4.3 9.9.3 10.2 0 .2-.3.3-9.7 0-10.2l-1.5-.3h-1.4v-1.4c-.1-.8-.2-1.5-.4-1.6l-3.4-.1h-3.1v-1.5c0-1-.1-1.6-.3-1.7-.1-.1-.9-.3-1.6-.3h-1.3v-1.7L41 29h-1.6l-1.6-.2V23l1.6-.1 1.6-.1V22l.2-1.5z"/></svg>