<svg viewBox="0 0 114.04 114.04"><g transform="translate(-66.798 -157.81)">
<path d="m74.014 165.02v99.602h99.602v-99.602zm72.445 18.48c4.9327 0 8.9036 3.9713 8.9036 8.904v44.834c0 4.9327-3.9709 8.904-8.9036 8.904-4.9327 0-8.904-3.9713-8.904-8.904v-44.834c0-4.9327 3.9713-8.904 8.904-8.904zm-22.644 22.39c4.9327 0 8.9036 3.9709 8.9036 8.9036v22.444c0 4.9327-3.9709 8.904-8.9036 8.904-4.9327 0-8.904-3.9713-8.904-8.904v-22.444c0-4.9327 3.9713-8.9036 8.904-8.9036zm-22.644 22.444c4.9327 0 8.9036 3.9713 8.9036 8.904s-3.9708 8.904-8.9036 8.904c-4.9327 0-8.904-3.9713-8.904-8.904s3.9713-8.904 8.904-8.904z" stroke-width="1.5454"/>
<path d="m137.56 192.41v44.834c0 4.9327 3.9713 8.904 8.904 8.904s8.9036-3.9713 8.9036-8.904v-44.834c0 4.9327-3.9708 8.9036-8.9036 8.9036-4.9327 0-8.904-3.9708-8.904-8.9036z" opacity=".15" stroke-width=".54166"/>
<path d="m114.91 214.8v22.444c0 4.9327 3.9713 8.904 8.904 8.904 4.9327 0 8.9036-3.9713 8.9036-8.904v-22.444c0 4.9327-3.9708 8.9036-8.9036 8.9036-4.9327 0-8.904-3.9708-8.904-8.9036z" opacity=".2" stroke-width=".4342"/>
</g></svg>