<svg style="width:24px;height:24px" viewBox="0 0 24 24"><path d="M7.5 2a6.5 6.5 0 0 0 0 11C4.5 13 2 10.5 2 7.5A5.5 5.5 0 0 1 7.5 2m11.6 1.5l1.4 1.4L4.9 20.5l-1.4-1.4L19.1 3.5m-6.2 2.4L11.4 5 10 6l.4-1.7-1.4-1 1.8-.2.5-1.6L12 3h1.7l-1.3 1.2.5 1.6M9.6 9.5l-1.2-.7-1 .8.3-1.3-1.1-.9h1.3L8.4 6l.5 1.2h1.3l-1 1 .4 1.2m9.4 4a5.5 5.5 0 0 1-5.5 5.5c-1.2 0-2.3-.4-3.3-1l7.7-7.8c.7 1 1.1 2 1.1 3.3m-4.4 6.6l2.8-1.2-.3 3.4-2.5-2.2m4.3-2.7l1.2-2.8 2.2 2.5-3.4.3m1.2-5l-1.2-2.8 3.4.3-2.2 2.5M9.6 19l2.8 1.2-2.5 2.2-.3-3.4z"/></svg>