<svg viewBox="0 0 24 24" style="height:20px;width:20px"><path d="M22 12.1C22 10.9 21 10 19.8 10 19.2 10 18.7 10.2 18.3 10.6 16.8 9.5 14.7 8.8 12.4 8.7L13.4 4 16.7 4.7C16.7 5.5 17.4 6.2 18.3 6.2 19.1 6.2 19.8 5.5 19.8 4.6 19.8 3.8 19.1 3.1 18.3 3.1 17.7 3.1 17.1 3.4 16.9 4L13.2 3.2C13.1 3.2 13 3.2 12.9 3.2 12.8 3.3 12.8 3.4 12.8 3.5L11.7 8.7C9.3 8.8 7.2 9.5 5.7 10.6 5.3 10.2 4.8 10 4.2 10 3 10 2 11 2 12.2 2 13.1 2.5 13.8 3.3 14.2 3.3 14.4 3.2 14.6 3.2 14.8 3.2 18.2 7.2 20.9 12 20.9 16.8 20.9 20.8 18.2 20.8 14.8 20.8 14.6 20.8 14.4 20.7 14.2 21.5 13.8 22 13 22 12.1M7 13.7C7 12.8 7.7 12.1 8.5 12.1 9.4 12.1 10.1 12.8 10.1 13.7A1.6 1.6 0 0 1 8.5 15.3C7.7 15.3 7 14.6 7 13.7M15.7 17.8C14.6 18.9 12.6 19 12 19 11.4 19 9.4 18.9 8.3 17.8 8.1 17.7 8.1 17.4 8.3 17.3 8.5 17.1 8.7 17.1 8.9 17.3 9.5 18 11 18.2 12 18.2 13 18.2 14.5 18 15.1 17.3 15.3 17.1 15.6 17.1 15.7 17.3 15.9 17.4 15.9 17.7 15.7 17.8M15.4 15.3C14.6 15.3 13.9 14.6 13.9 13.7A1.6 1.6 0 0 1 15.4 12.2C16.3 12.2 17 12.9 17 13.7 17 14.6 16.3 15.3 15.4 15.3Z"/></svg>